<?xml version="1.0" encoding="utf-8"?>
<!-- Generator: Adobe Illustrator 25.2.1, SVG Export Plug-In . SVG Version: 6.00 Build 0)  -->
<svg version="1.1" id="Layer_1" xmlns="http://www.w3.org/2000/svg" xmlns:xlink="http://www.w3.org/1999/xlink" x="0px" y="0px"
	 viewBox="0 0 1000 1000" style="enable-background:new 0 0 1000 1000;" xml:space="preserve">
<style type="text/css">
	.st0{fill:none;stroke:#000000;stroke-width:5;stroke-miterlimit:10;}
</style>
<g>
	<path class="st0" d="M629.5,510.3c13-6.7,23.4-15.7,31.9-27c9.3-12.4,16.7-25.7,19.9-41c2.7-12.8,3.3-25.7-1.3-38.3
		c-2-5.4-5-10.2-8.8-14.6c-1.1-1.3-2.4-2-4.3-2c-22.9-0.1-45.2-3.8-66.9-10.9c-31.1-10.2-59.7-25.2-86-44.7
		c-0.2-0.2-0.3-0.5-0.8-1.3c23.2-37.3,46.5-74.9,69.9-112.4c23.3-37.5,46.7-74.9,70.2-112.7c3.5,1.8,6.6,3.3,9.6,4.9
		c33.1,18.1,64.1,39.4,92.4,64.3c9.3,8.2,18.4,16.6,27.1,25.5c19.5,19.9,37.3,41.4,53,64.4c13,19.1,24.7,39.1,34.7,60
		c16.2,33.8,28,69.1,35.1,105.9c2.9,14.9,5.2,29.9,6.1,45c0.8,12.5,1.1,25,1.7,37.5c0.2,3.9-1.1,6.8-3.7,9.7
		c-5.3,5.7-10,12-15.1,17.9c-15.7,17.9-33.3,33.6-52.7,47.3c-21.3,15-44.1,27-68.6,36c-21,7.7-42.6,12.9-64.8,15.6
		c-14.8,1.8-29.7,2.7-44.6,2.1c-16.5-0.6-33-2.5-49.2-5.9c-25.6-5.4-50.1-14-73.4-25.9c-22.7-11.6-43.6-25.8-62.7-42.8
		c-16.3-14.5-31.3-30.1-45.1-47c-0.9-1.1-2-2-2.7-3.2c-0.5-0.9-0.7-2.3-0.3-3.1c0.4-0.7,1.8-1.1,2.8-1.1c3.2,0.1,6.4,0.7,9.6,0.7
		c16,0,31.3-2.9,45.6-10.2c5.8-3,11.4-6.5,16.7-10.3c12.5-8.9,25.6-16.3,40.7-19.7c3.7-0.8,7.2-2.3,10.8-3.1
		c12.1-2.6,23.8-0.8,34.9,4.5c14.5,6.9,25.8,17.4,34.7,30.6C627.2,506.9,628.2,508.5,629.5,510.3z"/>
	<path class="st0" d="M325.9,561.1c0.3,0.7,0.7,1.4,0.9,2.1c10.1,31.6,24.1,61.3,42.3,89.2c14.1,21.6,30.4,41.2,49.1,59
		c23.3,22.1,49,40.8,77.9,55c27.2,13.3,55.7,22.4,85.6,27.1c20.2,3.1,40.5,4.1,60.8,2.9c23.4-1.4,46.4-5.7,68.8-12.7
		c26.9-8.4,52.1-20.5,75.6-36c14.3-9.4,27.7-20.1,40.4-31.7c17.5-16,32.4-34.1,46.6-52.9c6.5-8.7,12.8-17.5,19.2-26.3
		c0.6-0.8,1.2-1.5,2.3-1.9c-1,3.1-2.1,6.2-3.1,9.3c-16.6,51.3-41.9,98-75,140.4c-14.4,18.5-30.2,35.8-47.2,52
		c-26.9,25.7-56.3,48.1-88.2,67.2c-5.7,3.4-11.6,6.7-17.3,10.1c-3.8,2.3-7.8,3.5-12.1,4.1c-18,2.7-36,3.5-54.1,2.6
		c-33-1.6-64.6-9.3-94.9-22.6c-27-11.8-51.5-27.6-73.7-47.1c-24.1-21.1-44.2-45.6-60.7-73c-15.7-26-27.3-53.9-35.2-83.2
		c-4.6-17-7.9-34.2-9.6-51.7c-0.9-9.3-0.9-18.6-1.8-27.9c-1-10.2,0.2-20.3,0.5-30.4c0.2-7.8,1.5-15.7,2.2-23.5
		C325.4,561.2,325.7,561.2,325.9,561.1z"/>
	<path class="st0" d="M108.4,964.9c0-2,0-3.7,0-5.3c0-18-0.1-36,0-54c0.1-25.7,0.4-51.3,0.5-77c0.1-23.4,0.2-46.9,0.3-70.3
		c0.2-28.2,0.4-56.3,0.5-84.5c0.1-23.2,0.2-46.3,0.3-69.5c0-4,0.8-7.6,2.4-11.3c4.1-9.3,7.7-18.8,11.7-28.1
		c12.3-28.8,28.7-55.1,49.3-78.6c10-11.4,21-21.9,32.3-32.1c10.2-9.3,20.8-18.1,32.3-25.8c8.4-5.6,17.1-10.9,25.7-16.4
		c0.8-0.5,1.6-0.8,3.4-1.6c-60.3,83.4-90.3,175.7-89.9,277.6c0.5,101.9,31.1,194,91.7,276.9c-1.9,0.1-3.5,0.2-5.1,0.2
		c-31.1,0-62.2,0-93.3,0c-17.6,0-35.2,0-52.7,0c-2.1,0-4.2,0.3-6.2,0.3C110.6,965.5,109.6,965.1,108.4,964.9z"/>
	<path class="st0" d="M113.4,59.1c2.9,0,5.2,0,7.5,0c39.1,0,78.1,0,117.2,0.1c3.4,0,6.9,0.5,10.3,1.2c20.3,4.6,38.3,14.1,55,26.2
		c19.3,13.9,35.7,30.6,47.2,51.7c9.6,17.5,16.1,36.1,20.5,55.4c2,8.7,3.2,17.5,3.6,26.4c0.1,1.1,0,2.2,0,3.2
		c-14.3-4.8-28.2-9.8-42.4-14.2c-14.2-4.4-28.8-7.4-43.6-9.6c-14.7-2.2-29.5-3.4-44.4-3.9c-14.9-0.5-29.8,0.4-44.6,1.8
		c-14.8,1.4-29.5,3.8-43.9,7.6c-14.3,3.8-28.5,8.2-43.4,12.5C112.8,164.6,113.1,112.1,113.4,59.1z"/>
	<path class="st0" d="M479,300.7c-4-4.3-7.7-8.1-11.2-12c-10.1-11.3-19.6-23.2-28.4-35.6c-2.1-2.9-2.1-5.1-0.3-8.2
		c9-15.9,16.5-32.5,21.2-50.3c4.1-15.3,6-30.8,5.3-46.7c-0.7-16.1-3.2-31.9-7.8-47.2c-3.6-12.1-8.3-23.9-15-34.8
		c-0.8-1.3-1.5-2.6-2.5-4.1c1.8-0.4,3.2-0.8,4.5-0.9c10.3-0.8,20.5-1.3,30.9-0.3c12.7,1.2,25.5,1.7,38.2,3.5
		c18.2,2.5,36.3,5.8,54.3,8.9c24.7,4.3,47.4,14.1,69.4,25.8c2.4,1.3,4.9,2.6,7.8,4.2C589.9,168.8,534.7,234.5,479,300.7z"/>
	<path class="st0" d="M112.2,405.1c-1-4-0.3-127.8,0.6-132.9c4-1.2,8.2-0.9,12.3-0.3c34.3,5.3,67.3,15,98.6,30.1
		c9.1,4.4,18.1,9.2,27,14.2c7.4,4.2,14.4,8.9,21.6,13.5c0.9,0.6,1.8,2.1,1.6,3c-0.3,1.3-1.4,2.7-2.6,3.4c-1.2,0.7-2.9,0.8-4.5,0.8
		c-19.8,0.7-38.7,5.7-57.3,12.3c-21.4,7.6-41.2,18.3-60.1,30.6c-11.5,7.5-22.7,15.6-34.1,23.4C114.4,403.9,113.3,404.4,112.2,405.1z
		"/>
</g>
</svg>
